HIERARCHY
ROOT SpineBase
{
  OFFSET 0.000000 0.000000 0.000000
  CHANNELS 6 Xposition Yposition Zposition Zrotation Xrotation Yrotation
  JOINT SpineMid
  {
    OFFSET -0.000000 28.843773 0.000000
    CHANNELS 3 Zrotation Xrotation Yrotation
    JOINT SpineShoulder
    {
      OFFSET -0.132152 21.431525 -0.664430
      CHANNELS 3 Zrotation Xrotation Yrotation
      JOINT Neck
      {
        OFFSET -0.076861 7.088087 -0.515717
        CHANNELS 3 Zrotation Xrotation Yrotation
        JOINT Head
        {
          OFFSET -2.680831 12.744898 -0.252741
          CHANNELS 3 Zrotation Xrotation Yrotation
          End Site
          {
            OFFSET 0 0 0
          }
        }
      }
      JOINT ShoulderLeft
      {
        OFFSET -14.127878 -3.896681 6.707882
        CHANNELS 3 Zrotation Xrotation Yrotation
        JOINT ElbowLeft
        {
          OFFSET -1.085345 -25.960208 3.032748
          CHANNELS 3 Zrotation Xrotation Yrotation
          JOINT WristLeft
          {
            OFFSET -0.361374 -21.272762 -1.211825
            CHANNELS 3 Zrotation Xrotation Yrotation
            JOINT HandLeft
            {
              OFFSET 0.158037 -5.514423 -1.119359
              CHANNELS 3 Zrotation Xrotation Yrotation
              JOINT HandTipLeft
              {
                OFFSET -0.046129 -6.228730 1.848064
                CHANNELS 3 Zrotation Xrotation Yrotation
                End Site
                {
                  OFFSET 0 0 0
                }
              }
              JOINT ThumbLeft
              {
                OFFSET -1.410328 -1.718260 -0.876181
                CHANNELS 3 Zrotation Xrotation Yrotation
                End Site
                {
                  OFFSET 0 0 0
                }
              }
            }
          }
        }
      }
      JOINT ShoulderRight
      {
        OFFSET 10.991036 -3.535357 -10.470314
        CHANNELS 3 Zrotation Xrotation Yrotation
        JOINT ElbowRight
        {
          OFFSET 6.880256 -22.655255 -1.627272
          CHANNELS 3 Zrotation Xrotation Yrotation
          JOINT WristRight
          {
            OFFSET -1.322619 -18.924802 -5.652823
            CHANNELS 3 Zrotation Xrotation Yrotation
            JOINT HandRight
            {
              OFFSET -1.356142 -6.912669 -0.231884
              CHANNELS 3 Zrotation Xrotation Yrotation
              JOINT HandTipRight
              {
                OFFSET -0.168794 -6.022406 -0.337190
                CHANNELS 3 Zrotation Xrotation Yrotation
                End Site
                {
                  OFFSET 0 0 0
                }
              }
              JOINT ThumbRight
              {
                OFFSET -2.680013 -0.639611 -1.464338
                CHANNELS 3 Zrotation Xrotation Yrotation
                End Site
                {
                  OFFSET 0 0 0
                }
              }
            }
          }
        }
      }
    }
  }
  JOINT HipLeft
  {
    OFFSET -5.671486 0.403118 -0.175494
    CHANNELS 3 Zrotation Xrotation Yrotation
    JOINT KneeLeft
    {
      OFFSET 4.572810 -28.177839 7.832746
      CHANNELS 3 Zrotation Xrotation Yrotation
      JOINT AnkleLeft
      {
        OFFSET 6.518540 -30.236693 6.852660
        CHANNELS 3 Zrotation Xrotation Yrotation
        JOINT FootLeft
        {
          OFFSET -4.812483 -2.610383 -10.807239
          CHANNELS 3 Zrotation Xrotation Yrotation
          End Site
          {
            OFFSET 0 0 0
          }
        }
      }
    }
  }
  JOINT HipRight
  {
    OFFSET 5.130701 1.137723 -6.260945
    CHANNELS 3 Zrotation Xrotation Yrotation
    JOINT KneeRight
    {
      OFFSET 9.639943 -30.040096 4.068521
      CHANNELS 3 Zrotation Xrotation Yrotation
      JOINT AnkleRight
      {
        OFFSET 5.902651 -33.713764 6.798959
        CHANNELS 3 Zrotation Xrotation Yrotation
        JOINT FootRight
        {
          OFFSET -5.285498 -3.245672 -6.305690
          CHANNELS 3 Zrotation Xrotation Yrotation
          End Site
          {
            OFFSET 0 0 0
          }
        }
      }
    }
  }
}
MOTION
Frames: 6
Frame Time: 0.033333
21.914282 67.707435 349.637975 7.897985 -3.674435 13.485046 -0.351736 -0.514049 -12.974309 -0.303160 -0.232278 0.300742 -4.093143 -8.907472 -2.823631 0.000000 0.000000 0.000000 -2.190187 -5.830854 0.897006 5.894580 60.365472 -8.804289 70.228774 -35.758680 42.915535 -48.592952 56.856343 15.381162 0.000000 0.000000 0.000000 0.000000 0.000000 0.000000 33.428814 3.458998 -5.867515 -50.042362 -8.086560 4.483031 -27.401733 -0.979390 0.453567 19.867660 30.985724 1.287016 0.000000 0.000000 0.000000 0.000000 0.000000 0.000000 -2.767009 7.830844 -11.892584 -1.653396 0.440044 -0.343664 2.378968 -12.438852 -3.539433 0.000000 0.000000 0.000000 -4.954575 25.506874 -7.120285 3.593968 -23.735975 -5.017336 24.158259 -25.341801 -15.053023 0.000000 0.000000 0.000000
21.874060 67.614013 349.741306 7.958171 -3.832465 12.932025 -0.322086 -0.657821 -12.398964 -0.314968 -0.218826 0.303925 -7.332499 -10.326056 -3.364634 0.000000 0.000000 0.000000 -3.118655 -6.619320 0.872154 4.231117 55.194566 -6.617976 63.974973 -33.257881 33.824466 -49.065371 49.957690 14.545604 0.000000 0.000000 0.000000 0.000000 0.000000 0.000000 31.732889 4.103002 -5.840854 -48.679035 -8.471670 4.281878 -29.254925 2.453062 1.154575 21.762978 28.292460 1.936143 0.000000 0.000000 0.000000 0.000000 0.000000 0.000000 -2.883838 7.784230 -11.337955 -1.561652 0.848053 -0.248603 3.311143 -15.226479 -3.282747 0.000000 0.000000 0.000000 -5.557694 25.434747 -6.517134 4.218964 -23.170632 -4.640636 23.999838 -25.948237 -12.320457 0.000000 0.000000 0.000000
21.798885 67.548076 349.813149 8.022333 -3.985814 12.902230 -0.332314 -0.493944 -12.364085 -0.384913 -0.381669 0.310990 -10.699309 -11.531061 -3.930776 0.000000 0.000000 0.000000 -3.587648 -7.022501 0.847940 3.366310 51.389940 -5.435334 59.390853 -28.777472 26.429091 -49.476234 45.254721 12.658533 0.000000 0.000000 0.000000 0.000000 0.000000 0.000000 30.036196 4.809888 -5.703108 -47.274992 -8.478864 3.995795 -30.018413 4.588489 1.426173 22.706315 26.812035 2.535047 0.000000 0.000000 0.000000 0.000000 0.000000 0.000000 -2.839971 7.841965 -11.287497 -1.599747 1.223058 -0.193819 3.913793 -17.132618 -3.032775 0.000000 0.000000 0.000000 -5.727924 25.403834 -6.508145 4.524433 -22.720604 -4.416095 23.396025 -25.589362 -13.134822 0.000000 0.000000 0.000000
21.723568 67.542991 349.839735 8.132151 -4.142375 13.282572 -0.287967 -0.149135 -12.747302 -0.471405 -0.668749 0.326932 -13.904586 -13.113358 -4.650150 0.000000 0.000000 0.000000 -2.858399 -6.419059 0.903971 2.190124 47.944182 -4.893780 54.500761 -23.656777 20.065437 -49.658002 38.597515 9.710260 0.000000 0.000000 0.000000 0.000000 0.000000 0.000000 27.744051 5.967000 -5.431823 -44.436053 -9.198765 3.195626 -32.898921 6.558018 2.365554 25.686282 25.341039 2.783715 0.000000 0.000000 0.000000 0.000000 0.000000 0.000000 -2.794417 8.062241 -11.640625 -1.604806 1.397450 -0.163293 4.081361 -17.931205 -2.818376 0.000000 0.000000 0.000000 -5.625906 25.458005 -6.947455 4.588970 -22.400909 -4.318304 23.471789 -26.105454 -9.759788 0.000000 0.000000 0.000000
21.621939 67.512982 349.869969 8.163061 -4.373042 13.705386 -0.124007 0.381026 -13.187838 -0.707390 -1.120558 0.343809 -17.347263 -14.072139 -5.316891 0.000000 0.000000 0.000000 -2.832706 -6.310314 0.891750 1.793918 44.746462 -4.361022 50.000691 -20.651232 15.385162 -48.175646 31.029932 7.877154 0.000000 0.000000 0.000000 0.000000 0.000000 0.000000 24.550022 6.814766 -4.954767 -40.667487 -8.917958 2.701988 -35.161509 5.762192 2.435873 27.853345 25.113347 2.515587 0.000000 0.000000 0.000000 0.000000 0.000000 0.000000 -2.486317 8.368761 -12.010180 -1.819547 1.358885 -0.233379 3.870420 -17.416926 -3.165869 0.000000 0.000000 0.000000 -5.258564 25.629419 -7.430804 4.406773 -22.253079 -4.351897 24.020351 -26.925583 -6.045239 0.000000 0.000000 0.000000
21.523743 67.488028 349.922843 8.109739 -4.553510 14.071964 -0.207683 0.843829 -13.570777 -0.963566 -1.512691 0.336839 -17.316692 -13.800467 -5.276738 0.000000 0.000000 0.000000 -2.135361 -5.585540 0.880774 1.702809 40.958731 -4.137485 44.877142 -16.891198 10.819976 -44.466870 28.827346 6.198499 0.000000 0.000000 0.000000 0.000000 0.000000 0.000000 22.029000 7.307450 -4.493225 -37.340416 -8.438577 2.458958 -34.492772 3.222556 1.734096 26.936738 24.834862 1.662770 0.000000 0.000000 0.000000 0.000000 0.000000 0.000000 -2.076302 8.670583 -12.325188 -2.111956 1.236518 -0.338247 3.285410 -15.841348 -3.616439 0.000000 0.000000 0.000000 -4.745857 25.802911 -7.854528 4.093217 -22.253899 -4.465693 24.551931 -27.536134 -2.898599 0.000000 0.000000 0.000000
